<svg width="241" height="107" viewBox="0 0 241 107" fill="none" xmlns="http://www.w3.org/2000/svg">
<g clip-path="url(#clip0_3_619)">
<path d="M100.099 33.7375C100.099 33.7375 100.336 48.8984 110.375 51.7694C113.068 52.5395 115.955 51.9076 118.135 50.1503C120.074 48.5864 122.452 46.1577 123.613 42.9865C123.613 42.9865 126.839 65.86 117.926 70.7767H106.244C106.244 70.7767 105.016 68.036 106.244 67.179C107.472 66.3221 109.317 68.3203 113.313 65.86C117.31 63.3997 117.156 59.5572 117.156 59.5572C117.156 59.5572 109.779 62.6296 102.71 57.7129C95.6408 52.7962 94.1045 42.1888 100.095 33.7375H100.099Z" fill="#734C21"/>
<path d="M126.689 46.1854C126.689 46.1854 135.294 56.6349 143.903 47.4136C143.903 47.4136 148.208 41.4188 147.9 32.1975C147.9 32.1975 156.505 38.9585 150.36 52.6384C150.36 52.6384 146.21 62.4757 130.994 59.7074C130.994 59.7074 134.066 66.65 142.521 66.5591V70.7729H122.542C122.542 70.7729 128.691 60.0154 126.693 46.1815L126.689 46.1854Z" fill="#734C21"/>
<path d="M105.17 42.0388C105.17 42.0388 121.062 16.2192 124.181 12.8387C124.181 12.8387 142.746 36.277 142.975 41.2727C142.975 41.2727 146.624 37.0826 144.922 28.0627C144.701 26.8859 144.164 25.792 143.398 24.8718L123.865 0L105.024 25.014C104.179 26.0408 103.638 27.2808 103.476 28.5998C103.045 32.083 103.14 37.9712 105.17 42.0349V42.0388Z" fill="#A82326"/>
<path d="M25.4523 67.9176V73.7071C22.6366 71.3455 19.7576 70.682 16.7484 70.682C13.4311 70.682 11.6184 72.0603 9.34766 74.4535C7.0611 76.8309 6.52006 79.8323 6.35025 82.3479C6.11725 85.7362 7.66137 88.2558 9.34766 90.3528C11.3933 92.9 13.0599 93.37 16.2705 93.9702C17.9529 94.2862 19.4931 93.7451 20.662 93.52C21.1556 93.3739 22.4668 93.0777 23.1855 92.5999C23.9043 92.126 24.6586 91.5494 25.4523 90.882V96.7741C22.6642 98.3538 19.7418 99.1436 16.6773 99.1436C12.0647 99.1436 8.13132 97.5284 4.86931 94.298C1.6231 91.04 0 87.1105 0 82.5098C0 78.3869 1.35851 74.7062 4.07553 71.4798C7.42047 67.5227 11.7448 65.5442 17.0525 65.5442C19.9512 65.5442 22.7511 66.334 25.4523 67.9137V67.9176Z" fill="#734C21"/>
<path d="M48.5786 93.7056L36.8575 93.99L35.2423 99.1081H26.8622L42.8286 64.6912L58.2304 99.1081H50.8968L48.5865 93.7056H48.5786ZM47.4886 88.6784L42.7378 75.6382L38.1331 88.6784H47.4886Z" fill="#734C21"/>
<path d="M79.1728 71.3178H69.2446L69.3709 79.0976H78.7778V83.6905H69.4973L69.3709 99.1041H63.0602V66.7209H79.1728V71.3138V71.3178Z" fill="#734C21"/>
<path d="M101.209 71.298H89.4011V79.0778H100.834V83.6707H89.5274V94.4914H101.209V99.0843H83.4062V66.7012H101.209V71.294V71.298Z" fill="#734C21"/>
<path d="M224.166 102.39L224.411 99.2069C225.947 99.5426 227.48 99.7124 229.004 99.7124C232.412 99.7124 234.114 98.4052 234.114 95.7948V95.3486H231.812C226.54 95.3486 223.906 93.0699 223.906 88.5086C223.906 86.4156 224.53 84.6977 225.777 83.355C227.179 81.8583 229.162 81.1079 231.725 81.1079C234.039 81.1079 236.093 81.4475 237.89 82.1307V95.4078C237.89 97.5956 237.175 99.3333 235.745 100.621C234.15 102.062 231.788 102.781 228.66 102.781C227.183 102.781 225.683 102.651 224.166 102.394V102.39ZM234.118 84.7095C233.368 84.3541 232.432 84.1764 231.31 84.1764C230.189 84.1764 229.367 84.5516 228.731 85.298C228.107 86.0286 227.795 86.9764 227.795 88.1493C227.795 90.9058 229.272 92.2801 232.23 92.2801H234.118V84.7056V84.7095Z" fill="#A82326"/>
<path d="M171.504 67.9295C165.64 67.9295 162.709 65.3941 162.709 60.3195C162.709 57.9895 163.404 56.0781 164.791 54.5853C166.35 52.9187 168.554 52.0855 171.405 52.0855C173.98 52.0855 176.263 52.4646 178.261 53.2228V64.5174H181.464V67.9295H171.5H171.504ZM166.714 49.3605C166.299 48.934 166.09 48.4088 166.09 47.7888C166.09 47.1688 166.299 46.6396 166.714 46.2012C167.14 45.7629 167.654 45.5457 168.25 45.5457C168.846 45.5457 169.391 45.7629 169.822 46.2012C170.236 46.6277 170.446 47.1569 170.446 47.7888C170.446 48.4206 170.236 48.9222 169.822 49.3605C169.395 49.7989 168.87 50.0161 168.25 50.0161C167.63 50.0161 167.128 49.7989 166.714 49.3605ZM174.067 56.0899C173.234 55.695 172.191 55.4975 170.943 55.4975C169.695 55.4975 168.779 55.9122 168.076 56.7455C167.381 57.559 167.034 58.6134 167.034 59.9166C167.034 62.9812 168.677 64.5135 171.966 64.5135H174.063V56.086L174.067 56.0899ZM172.164 49.3605C171.749 48.934 171.54 48.4088 171.54 47.7888C171.54 47.1688 171.749 46.6396 172.164 46.2012C172.59 45.7629 173.104 45.5457 173.7 45.5457C174.296 45.5457 174.821 45.7629 175.236 46.2012C175.651 46.6277 175.86 47.1569 175.86 47.7888C175.86 48.4206 175.651 48.9222 175.236 49.3605C174.821 49.7989 174.308 50.0161 173.7 50.0161C173.092 50.0161 172.578 49.7989 172.164 49.3605Z" fill="#A82326"/>
<path d="M180.99 64.5173H185.587V52.5039H189.911V64.5173L225.477 64.1974V67.6094L180.99 67.9293V64.5173ZM183.711 74.4652C183.273 74.0268 183.055 73.4897 183.055 72.846C183.055 72.2023 183.273 71.6929 183.711 71.2427C184.161 70.8043 184.694 70.5871 185.314 70.5871C185.934 70.5871 186.479 70.8043 186.918 71.2427C187.368 71.681 187.589 72.2142 187.589 72.846C187.589 73.4779 187.364 74.011 186.918 74.4494C186.479 74.8996 185.946 75.1207 185.314 75.1207C184.682 75.1207 184.161 74.9035 183.711 74.4652Z" fill="#A82326"/>
<path d="M225.477 64.1935H235.216C235.022 59.2294 232.345 56.1412 227.175 54.9327V51.7615L240.184 43.6223V47.9151L232.175 52.737C237.025 54.9169 239.449 59.1386 239.449 65.4098V67.6056H225.481V64.1935H225.477Z" fill="#A82326"/>
<path d="M132.577 97.951V89.7565C132.577 88.165 132.309 87.0474 131.772 86.3997C131.235 85.756 130.283 85.4322 128.916 85.4322C128.186 85.4322 127.459 85.4954 126.74 85.6257V97.951H119.837C115.525 97.951 112.377 97.0743 110.399 95.3209C108.602 93.7412 107.705 91.3599 107.705 88.1729C107.705 86.2812 107.99 84.5476 108.558 82.9797L113.222 82.2215C112.468 83.8683 112.093 85.6849 112.093 87.6753C112.093 90.0724 112.689 91.7943 113.882 92.8368C115.142 93.9545 117.274 94.5152 120.287 94.5152H122.546V82.6243C124.588 82.2057 126.8 81.9964 129.177 81.9964C131.953 81.9964 133.952 82.648 135.18 83.9473C136.266 85.1083 136.811 86.8894 136.811 89.2865V94.5113H143.279V82.4111H147.635V97.9471H132.585L132.577 97.951ZM117.831 104.483C117.401 104.925 116.875 105.142 116.251 105.142C115.627 105.142 115.134 104.929 114.703 104.499C114.285 104.068 114.075 103.535 114.075 102.903C114.075 102.271 114.285 101.762 114.703 101.324C115.134 100.881 115.651 100.664 116.251 100.664C116.887 100.664 117.412 100.877 117.831 101.308C118.262 101.75 118.475 102.279 118.475 102.903C118.475 103.527 118.262 104.052 117.831 104.483ZM123.285 104.483C122.866 104.925 122.349 105.142 121.737 105.142C121.125 105.142 120.619 104.929 120.189 104.499C119.77 104.068 119.561 103.535 119.561 102.903C119.561 102.271 119.77 101.762 120.189 101.324C120.619 100.881 121.137 100.664 121.737 100.664C122.337 100.664 122.866 100.877 123.285 101.308C123.715 101.75 123.929 102.279 123.929 102.903C123.929 103.527 123.715 104.045 123.285 104.483ZM143.836 78.995C143.394 78.5527 143.177 78.0117 143.177 77.364C143.177 76.7164 143.398 76.203 143.836 75.7528C144.286 75.3105 144.828 75.0933 145.448 75.0933C146.068 75.0933 146.609 75.3144 147.059 75.7528C147.501 76.203 147.718 76.744 147.718 77.364C147.718 77.984 147.497 78.5251 147.059 78.9753C146.609 79.4176 146.068 79.6348 145.448 79.6348C144.828 79.6348 144.275 79.4215 143.836 78.9911V78.995Z" fill="#A82326"/>
<path d="M151.565 105.837L151.837 102.271C153.559 102.646 155.273 102.836 156.983 102.836C160.802 102.836 162.709 101.375 162.709 98.4485V97.947H160.127C154.223 97.947 151.269 95.3919 151.269 90.2856C151.269 87.9398 151.968 86.0166 153.366 84.512C154.937 82.8336 157.157 81.9963 160.028 81.9963C162.618 81.9963 164.921 82.3794 166.931 83.1416V94.5152H170.157V97.9509H166.931V98.0141C166.931 100.467 166.129 102.413 164.526 103.855C162.741 105.466 160.095 106.276 156.588 106.276C154.933 106.276 153.255 106.13 151.557 105.841L151.565 105.837ZM162.709 86.0284C161.872 85.6296 160.822 85.4321 159.562 85.4321C158.302 85.4321 157.386 85.8507 156.675 86.6919C155.976 87.5094 155.625 88.5756 155.625 89.8868C155.625 92.975 157.279 94.5152 160.593 94.5152H162.705V86.0284H162.709Z" fill="#A82326"/>
<path d="M169.68 94.5151H174.308V82.4149H178.664V94.5151H181.598V97.9509H169.676V94.5151H169.68ZM171.567 79.2516C171.149 78.8212 170.939 78.2959 170.939 77.672C170.939 77.048 171.149 76.5149 171.567 76.0765C171.998 75.6342 172.515 75.417 173.115 75.417C173.716 75.417 174.265 75.6381 174.695 76.0765C175.114 76.507 175.323 77.0401 175.323 77.672C175.323 78.3038 175.114 78.8133 174.695 79.2516C174.265 79.6939 173.739 79.9111 173.115 79.9111C172.491 79.9111 171.986 79.69 171.567 79.2516ZM177.053 79.2516C176.634 78.8212 176.425 78.2959 176.425 77.672C176.425 77.048 176.634 76.5149 177.053 76.0765C177.483 75.6342 178 75.417 178.601 75.417C179.201 75.417 179.73 75.6381 180.149 76.0765C180.567 76.507 180.777 77.0401 180.777 77.672C180.777 78.3038 180.567 78.8133 180.149 79.2516C179.718 79.6939 179.201 79.9111 178.601 79.9111C178 79.9111 177.471 79.69 177.053 79.2516Z" fill="#A82326"/>
<path d="M202.604 97.9511C200.807 97.9511 199.476 97.801 198.603 97.5009C197.667 97.1691 196.964 96.561 196.49 95.6764C195.705 97.3666 194.042 98.2078 191.507 98.2078C189.153 98.2078 187.688 97.3548 187.119 95.6448C186.44 97.181 184.975 97.9511 182.716 97.9511H181.105V94.5153H182.751C183.849 94.5153 184.611 94.2349 185.042 93.6781C185.504 93.0857 185.737 91.9997 185.737 90.42V84.4015H190.093V90.5148C190.093 92.1063 190.227 93.1884 190.496 93.7571C190.808 94.4363 191.432 94.772 192.368 94.772C194.133 94.772 195.013 93.3622 195.013 90.5464V83.0785H199.207V91.3718C199.207 92.6631 199.476 93.5122 200.013 93.919C200.53 94.3179 201.561 94.5153 203.109 94.5153H203.962C204.124 93.2792 204.203 91.9563 204.203 90.5464C204.203 87.5016 203.879 84.5516 203.236 81.6884L207.493 81.1079C208.204 84.0658 208.559 87.1146 208.559 90.2542C208.559 91.4784 208.504 92.9001 208.397 94.5114H211.624V97.9471H202.608L202.604 97.9511Z" fill="#A82326"/>
<path d="M211.122 94.5153H215.75V82.415H220.106V97.951H211.122V94.5153ZM213.863 104.53C213.42 104.088 213.203 103.547 213.203 102.899C213.203 102.252 213.424 101.738 213.863 101.288C214.313 100.846 214.854 100.629 215.474 100.629C216.094 100.629 216.647 100.85 217.085 101.288C217.536 101.73 217.765 102.267 217.765 102.899C217.765 103.531 217.539 104.072 217.085 104.511C216.643 104.961 216.106 105.19 215.474 105.19C214.842 105.19 214.313 104.969 213.863 104.53Z" fill="#A82326"/>
</g>
<defs>
<clipPath id="clip0_3_619">
<rect width="240.18" height="106.276" fill="white"/>
</clipPath>
</defs>
</svg>
