<svg width="84" height="106" viewBox="0 0 84 106" fill="none" xmlns="http://www.w3.org/2000/svg">
<g clip-path="url(#clip0_3_620)">
<path d="M5.55509 50.438C5.55509 50.438 5.91016 73.1028 20.9192 77.3957C24.9441 78.5457 29.2622 77.6042 32.522 74.9766C35.4198 72.6401 38.9727 69.0092 40.7114 64.265C40.7114 64.265 45.5358 98.4593 32.2104 105.813H14.7479C14.7479 105.813 12.9107 101.717 14.7479 100.432C16.5851 99.1465 19.3432 102.136 25.3175 98.4593C31.2918 94.7826 31.0627 89.0396 31.0627 89.0396C31.0627 89.0396 20.0327 93.6349 9.46313 86.2816C-1.10645 78.9282 -3.40408 63.0738 5.55738 50.438H5.55509Z" fill="#734C21"/>
<path d="M45.3045 69.0505C45.3045 69.0505 58.1717 84.6758 71.0389 70.8877C71.0389 70.8877 77.4714 61.9262 77.0132 48.1404C77.0132 48.1404 89.8805 58.2495 80.6899 78.6992C80.6899 78.6992 74.4865 93.4036 51.7392 89.2687C51.7392 89.2687 56.3345 99.6482 68.9727 99.513V105.813H39.1034C39.1034 105.813 48.2939 89.7292 45.3068 69.0482L45.3045 69.0505Z" fill="#734C21"/>
<path d="M13.1375 62.8471C13.1375 62.8471 36.8973 24.2454 41.5613 19.1897C41.5613 19.1897 69.3162 54.2292 69.6621 61.6971C69.6621 61.6971 75.121 55.4319 72.5737 41.9507C72.2415 40.1937 71.442 38.5581 70.2967 37.1837L41.0871 0L12.9153 37.399C11.6508 38.9315 10.8468 40.7893 10.6017 42.7617C9.95567 47.9686 10.0977 56.7697 13.1353 62.8471H13.1375Z" fill="#A82326"/>
</g>
<defs>
<clipPath id="clip0_3_620">
<rect width="84" height="105.815" fill="white"/>
</clipPath>
</defs>
</svg>
