<svg width="475" height="811" viewBox="0 0 475 811" fill="none" xmlns="http://www.w3.org/2000/svg">
<g opacity="0.15" clip-path="url(#clip0_3_741)">
<path d="M47.8793 434.728C47.8793 434.728 50.9396 630.077 180.304 667.077C214.994 676.989 252.212 668.874 280.308 646.227C305.284 626.088 335.908 594.794 350.894 553.904C350.894 553.904 392.475 848.625 277.623 912.004H127.113C127.113 912.004 111.278 876.702 127.113 865.625C142.948 854.549 166.72 880.315 218.212 848.625C269.705 816.936 267.731 767.437 267.731 767.437C267.731 767.437 172.663 807.044 81.5629 743.665C-9.53684 680.286 -29.3403 543.637 47.899 434.728H47.8793Z" fill="#734C21"/>
<path d="M390.481 595.149C390.481 595.149 501.384 729.825 612.288 610.984C612.288 610.984 667.729 533.745 663.78 414.924C663.78 414.924 774.684 502.055 695.47 678.312C695.47 678.312 642.003 805.05 445.943 769.412C445.943 769.412 485.55 858.873 594.478 857.708V912.004H337.034C337.034 912.004 416.247 773.38 390.501 595.13L390.481 595.149Z" fill="#734C21"/>
<path d="M113.233 541.682C113.233 541.682 318.02 208.973 358.219 165.397C358.219 165.397 597.44 467.404 600.421 531.771C600.421 531.771 647.472 477.77 625.516 361.576C622.653 346.432 615.762 332.334 605.89 320.488L354.132 0L111.318 322.344C100.419 335.553 93.4889 351.565 91.3763 368.565C85.8084 413.444 87.0325 489.301 113.213 541.682H113.233Z" fill="#A82326"/>
</g>
<defs>
<clipPath id="clip0_3_741">
<rect width="724" height="912.024" fill="white"/>
</clipPath>
</defs>
</svg>
