<svg xmlns="http://www.w3.org/2000/svg" width="13.668" height="17.939" viewBox="0 0 13.668 17.939">
  <path id="形状" d="M12.925,1.09a.854.854,0,0,1,.382,1.146l-.663,1.326h3.316a1.708,1.708,0,0,1,1.708,1.709V17.231a1.709,1.709,0,0,1-1.708,1.708H5.708A1.709,1.709,0,0,1,4,17.231V5.271A1.709,1.709,0,0,1,5.708,3.563H9.025L8.361,2.236A.854.854,0,1,1,9.89,1.472l.944,1.889.944-1.889A.854.854,0,0,1,12.925,1.09Zm-.809,11.015H9.553a2.136,2.136,0,0,0-2.131,2l0,.14v.427a.854.854,0,0,0,1.7.1l.006-.1v-.427a.427.427,0,0,1,.35-.42l.077-.007h2.563a.427.427,0,0,1,.42.35l.007.077v.427a.854.854,0,0,0,1.7.1l.006-.1v-.427a2.136,2.136,0,0,0-2-2.131ZM10.834,7.834a1.709,1.709,0,1,0,1.708,1.709A1.708,1.708,0,0,0,10.834,7.834Z" transform="translate(-4 -1)" fill="#ef5253" fill-rule="evenodd"/>
</svg>
