<svg id="passport-svgrepo-com" xmlns="http://www.w3.org/2000/svg" width="15.449" height="18.443" viewBox="0 0 15.449 18.443">
  <path id="Path_7543" data-name="Path 7543" d="M5.3,17.646a2.414,2.414,0,0,0-.319-.02H4.643v.76h.3c.026,0,.056,0,.087,0a1.241,1.241,0,0,0,.348-.049l-.009,0a.369.369,0,0,0,.166-.128h0a.383.383,0,0,0-.025-.451h0a.328.328,0,0,0-.208-.117h0Z" transform="translate(-1.075 -4.081)" fill="#ef5253"/>
  <path id="Path_7544" data-name="Path 7544" d="M7.738,18.847h.728L8.1,17.853Z" transform="translate(-1.792 -4.134)" fill="#ef5253"/>
  <path id="Path_7545" data-name="Path 7545" d="M14.083,0H1.365A1.365,1.365,0,0,0,0,1.365V17.079a1.365,1.365,0,0,0,1.365,1.365H14.084a1.365,1.365,0,0,0,1.365-1.365V1.365A1.365,1.365,0,0,0,14.084,0h0ZM8,2.09c.055.006.118.006.173.012a.866.866,0,0,1,.483.205h0a3.13,3.13,0,0,1,.7.891l.008.017a4.377,4.377,0,0,1,.261.56l.011.032a15.131,15.131,0,0,1-1.617.123H8ZM9.856,8.549A14.588,14.588,0,0,0,8.013,8.4H8V6.914h2.09a8.094,8.094,0,0,1-.246,1.694l.012-.056ZM8,9.061a14.538,14.538,0,0,1,1.73.131l-.075-.008a5.067,5.067,0,0,1-.3.676l.014-.028a3.074,3.074,0,0,1-.706.9l0,0a.857.857,0,0,1-.478.2h0A1.436,1.436,0,0,1,8,10.955H8Zm1.834,1.025a5.377,5.377,0,0,0,.353-.782l.012-.039c.284.049.574.111.861.184h.006c-.061.075-.13.142-.191.2a4.4,4.4,0,0,1-1.325.915l-.028.012a3.2,3.2,0,0,0,.3-.473l.008-.018Zm2.321-3.174a4.466,4.466,0,0,1-.672,1.994l.011-.018-.075-.018c-.327-.086-.673-.167-1.025-.235a8.267,8.267,0,0,0,.245-1.7V6.913ZM8,4.585a16.6,16.6,0,0,0,1.926-.151l-.085.01A7.568,7.568,0,0,1,10.09,6.12v.015H8Zm2.378-.228c.346-.061.676-.136,1.007-.229l.074-.018a4.335,4.335,0,0,1,.691,2.009v.016H10.628A8.289,8.289,0,0,0,10.36,4.3l.013.058Zm.642-.815c-.278.068-.562.13-.84.179a5.748,5.748,0,0,0-.354-.8l.015.031a4.915,4.915,0,0,0-.324-.514l.01.015a4.505,4.505,0,0,1,1.352.926c.043.055.093.105.142.161ZM6.805,2.306a.857.857,0,0,1,.478-.2h0a1.436,1.436,0,0,1,.171-.012h0V3.924a14.215,14.215,0,0,1-1.711-.131l.074.008a5.173,5.173,0,0,1,.285-.62l-.014.028a3.156,3.156,0,0,1,.695-.9l0,0ZM5.07,8.635c-.352.068-.7.142-1.025.235l-.075.018a4.279,4.279,0,0,1-.66-1.96V6.913H4.829a7.811,7.811,0,0,0,.252,1.78l-.012-.055ZM4.4,9.456c.284-.074.574-.136.861-.184a5.9,5.9,0,0,0,.38.852l-.015-.031a4.914,4.914,0,0,0,.324.514l-.01-.015a4.505,4.505,0,0,1-1.352-.926C4.522,9.6,4.461,9.53,4.4,9.456ZM5.8,9.184a12.785,12.785,0,0,1,1.647-.123h.008v1.895c-.142-.006-.278-.025-.413-.043a1.962,1.962,0,0,1-.244-.175l0,0a3.144,3.144,0,0,1-.7-.891L6.1,9.832a4.909,4.909,0,0,1-.279-.609L5.8,9.187ZM7.46,8.4a15.441,15.441,0,0,0-1.941.158l.083-.01a7.426,7.426,0,0,1-.241-1.621V6.911h2.1ZM5.62,4.442a13.34,13.34,0,0,0,1.832.142H7.46v1.55h-2.1a8.078,8.078,0,0,1,.27-1.744l-.013.057Zm.314-1.988a4.8,4.8,0,0,0-.3.475l-.013.025a4.918,4.918,0,0,0-.328.729l-.011.036C5,3.67,4.719,3.608,4.441,3.54H4.435c.049-.055.1-.111.148-.161A4.555,4.555,0,0,1,5.9,2.471l.028-.012ZM4.077,4.127c.327.087.661.161,1.007.229a8.049,8.049,0,0,0-.259,1.763v.015H3.3a4.386,4.386,0,0,1,.708-2.042L4,4.108Zm.692,10.466a.882.882,0,0,1-.277.128l-.006,0A3.117,3.117,0,0,1,4,14.76H3.571v1.013H3.028V13.087H3.9c.041,0,.088,0,.135,0a2.805,2.805,0,0,1,.524.049l-.018,0a.737.737,0,0,1,.388.264l0,0a.97.97,0,0,1,.059.944l0-.006a.647.647,0,0,1-.221.262l0,0ZM7.09,15.771l-.235-.611H5.779l-.223.611H4.982l1.045-2.686H6.6l1.074,2.686Zm2.8-.352a.771.771,0,0,1-.36.3l-.005,0a1.451,1.451,0,0,1-.533.1H8.935l-.072,0a1.187,1.187,0,0,1-.715-.239l0,0a1.028,1.028,0,0,1-.327-.682v0l.525-.049a.641.641,0,0,0,.191.388.725.725,0,0,0,.794.011l0,0a.339.339,0,0,0,.136-.259h0v-.006a.24.24,0,0,0-.056-.154h0a.508.508,0,0,0-.194-.116h0c-.061-.025-.21-.061-.43-.118a1.494,1.494,0,0,1-.615-.268l0,0a.694.694,0,0,1-.246-.529v-.015h0v-.005a.659.659,0,0,1,.119-.38l0,0a.773.773,0,0,1,.328-.27l0,0a1.332,1.332,0,0,1,.495-.093h.036c.026,0,.056,0,.086,0a1.1,1.1,0,0,1,.675.228l0,0a.766.766,0,0,1,.266.58v.013h0l-.543.025a.478.478,0,0,0-.148-.3.534.534,0,0,0-.305-.095l-.042,0h0l-.04,0a.59.59,0,0,0-.331.1l0,0a.208.208,0,0,0-.087.167v0a.2.2,0,0,0,.08.158h0a1.424,1.424,0,0,0,.492.178h.008a2.923,2.923,0,0,1,.6.2l-.018-.008a.8.8,0,0,1,.294.269l0,0a.766.766,0,0,1,.106.392c0,.012,0,.024,0,.035v.019a.754.754,0,0,1-.126.42l0,0Zm2.5,0a.771.771,0,0,1-.36.3l-.005,0a1.451,1.451,0,0,1-.533.1h-.054l-.072,0a1.187,1.187,0,0,1-.715-.239l0,0a1.028,1.028,0,0,1-.327-.682v0l.525-.049a.641.641,0,0,0,.191.388.725.725,0,0,0,.794.011l0,0a.339.339,0,0,0,.136-.259h0v-.006a.24.24,0,0,0-.056-.154h0a.508.508,0,0,0-.194-.116h0c-.061-.025-.21-.061-.43-.118a1.494,1.494,0,0,1-.615-.268l0,0a.694.694,0,0,1-.246-.529v-.015h0v-.005a.659.659,0,0,1,.119-.38l0,0a.768.768,0,0,1,.328-.27l0,0a1.335,1.335,0,0,1,.495-.093h.036c.026,0,.056,0,.086,0a1.1,1.1,0,0,1,.675.228l0,0a.766.766,0,0,1,.266.58v.013h0l-.543.025a.478.478,0,0,0-.148-.3.534.534,0,0,0-.305-.095l-.042,0h0l-.04,0a.59.59,0,0,0-.331.1l0,0a.208.208,0,0,0-.087.167v0a.2.2,0,0,0,.08.158h0a1.43,1.43,0,0,0,.491.178l.008,0a2.923,2.923,0,0,1,.6.2l-.018-.008a.8.8,0,0,1,.294.269l0,0a.766.766,0,0,1,.106.392c0,.012,0,.024,0,.035v0c0,.014,0,.029,0,.045a.674.674,0,0,1-.127.395l0,0Z" transform="translate(0 0)" fill="#ef5253"/>
</svg>
